# xmcd
#
# Track frame offsets: 
#        150
#        15871
#        32852
#        48339
#        66172
#        85894
#        101565
#        120255
#        135532
#        147916
#        168058
#        188210
#
# Disc length: 2778 seconds
#
# Revision: 0
# Processed by: cddbd v1.5.2PL0 Copyright (c) Steve Scherf et al.
# Submitted via: ExactAudioCopy v1.0b3
#
DISCID=920ad80c
DTITLE=Slow Ride - Blues Za Twoim Oknem
DYEAR=2013
DGENRE=Blues
TTITLE0=Close To You
TTITLE1=Rusz się chłopie
TTITLE2=Purple Haze
TTITLE3=Chwila
TTITLE4=All Long The Watchtower
TTITLE5=Poranny blues
TTITLE6=Pijany świat
TTITLE7=Oni zaraz przyjdą tu
TTITLE8=Little Wing
TTITLE9=Dlaczego
TTITLE10=Zabiorę się
TTITLE11=Blues za twoim oknem
EXTD=
EXTT0=
EXTT1=
EXTT2=
EXTT3=
EXTT4=
EXTT5=
EXTT6=
EXTT7=
EXTT8=
EXTT9=
EXTT10=
EXTT11=
PLAYORDER=
